<svg class="splash__design-studio" enable-background="new 0 0 1455.26 116.48" version="1.1" viewBox="0 0 1455.3 116.48" xml:space="preserve" xmlns="http://www.w3.org/2000/svg">
    <style type="text/css">.st0{fill:#221F1F;}</style>
    <path class="st0" d="m306.2 0"/>
    <path d="m0 113.85v-105.84h29.18c16.03 0 29.03 4.69 38.86 14.06 9.98 9.37 14.97 22.38 14.97 38.86s-4.99 29.48-14.97 38.86c-9.83 9.37-22.83 14.06-38.86 14.06h-29.18zm28.43-11.19c25.55 0 41.58-13.91 41.58-41.58 0-27.82-16.03-41.88-41.58-41.88h-15.73v83.46h15.73z"/>
    <path d="M131.88,114.37V8.52h66.23v11.19h-53.52v34.32h49.29v11.19h-49.29v37.95h53.98v11.19H131.88z"/>
    <path d="m322.39 84.88c0 8.92-3.63 16.48-10.73 22.53s-16.18 9.07-27.52 9.07c-11.64 0-21.17-3.02-28.58-9.22s-11.94-14.06-13.61-23.59l11.19-5.9c2.87 18.14 14.21 27.52 31 27.52 7.86 0 14.06-1.97 18.6-5.75 4.69-3.78 6.95-8.47 6.95-13.76 0-11.94-8.77-17.84-27.97-21.47-23.13-4.23-34.78-14.36-34.78-30.39 0-8.01 3.33-14.67 9.98-19.81 6.66-5.14 15.12-7.71 25.4-7.71 18.6 0 32.96 9.83 38.25 25.4l-10.28 6.05c-2.27-6.5-5.89-11.49-10.58-15.12s-10.59-5.44-17.39-5.44-12.25 1.51-16.63 4.39c-4.24 2.87-6.35 6.95-6.35 12.25 0 10.43 9.08 16.33 28.88 20.11 23.13 4.23 34.17 14.06 34.17 30.84z"/>
    <path d="M373.34,114.37V8.52h12.7v105.84H373.34z"/>
    <path d="m523.94 114.37-3.63-18.3c-6.05 12.55-17.69 20.41-33.87 20.41-14.82 0-26.91-5.14-36.29-15.42-9.37-10.43-14.06-23.59-14.06-39.62 0-15.57 5.14-28.58 15.27-39.16s22.38-15.87 36.44-15.87c20.41 0 35.84 9.83 44.15 25.71l-9.68 6.95c-8.92-15.12-19.51-21.47-34.63-21.47-10.58 0-19.65 4.23-27.21 12.55s-11.34 18.75-11.34 31.3c0 13 3.48 23.59 10.28 31.75 6.8 8.01 16.03 12.1 27.52 12.1 18.9 0 30.24-12.85 33.11-33.42h-37.2v-10.59h49.9v53.07h-8.76z"/>
    <path d="m585.02 114.37v-105.85h13.46l50.35 79.68c2.42 4.08 3.93 6.8 4.54 8.32v-88h12.1v105.84h-13.46l-50.35-79.68c-2.42-4.08-3.93-6.8-4.54-8.32v88h-12.1z"/>
    <path d="m869.13 84.88c0 8.92-3.63 16.48-10.74 22.53s-16.18 9.07-27.52 9.07c-11.65 0-21.17-3.02-28.58-9.22s-11.94-14.06-13.61-23.59l11.19-5.9c2.87 18.14 14.21 27.52 31 27.52 7.86 0 14.06-1.97 18.6-5.75 4.69-3.78 6.95-8.47 6.95-13.76 0-11.94-8.77-17.84-27.97-21.47-23.14-4.23-34.78-14.36-34.78-30.39 0-8.01 3.33-14.67 9.98-19.81s15.12-7.71 25.4-7.71c18.6 0 32.96 9.83 38.25 25.4l-10.28 6.05c-2.27-6.5-5.9-11.49-10.59-15.12s-10.59-5.44-17.39-5.44-12.25 1.51-16.63 4.39c-4.23 2.87-6.35 6.95-6.35 12.25 0 10.43 9.07 16.33 28.88 20.11 23.15 4.23 34.19 14.06 34.19 30.84z"/>
    <path d="M906.77,19.71V8.52h78.63v11.19h-32.96v94.65h-12.7V19.71H906.77z"/>
    <path d="m1108.3 8.52v70.31c0 11.64-3.63 20.87-10.89 27.67-7.11 6.65-16.63 9.98-28.27 9.98s-21.17-3.33-28.43-9.98c-7.11-6.8-10.74-16.03-10.74-27.67v-70.31h12.7v71.07c0 7.41 2.27 13.46 6.95 18.45 4.69 4.84 11.19 7.26 19.51 7.26 8.31 0 14.82-2.42 19.51-7.26 4.69-4.99 6.95-11.04 6.95-18.45v-71.07h12.71z"/>
    <path d="m1157.9 114.37v-105.85h29.18c16.03 0 29.03 4.69 38.86 14.06 9.98 9.37 14.97 22.38 14.97 38.86s-4.99 29.48-14.97 38.86c-9.83 9.37-22.83 14.06-38.86 14.06h-29.18zm28.43-11.19c25.55 0 41.58-13.91 41.58-41.58 0-27.82-16.03-41.88-41.58-41.88h-15.73v83.46h15.73z"/>
    <path d="m1289.3 114.37v-105.85h12.7v105.84h-12.7z"/>
    <path d="m1440.4 101.21c-9.83 10.13-21.92 15.27-36.44 15.27-14.36 0-26.46-5.14-36.29-15.27s-14.67-23.44-14.67-39.62c0-16.33 4.84-29.64 14.67-39.77 9.83-10.28 21.92-15.42 36.29-15.42 14.52 0 26.61 5.14 36.44 15.42 9.83 10.13 14.82 23.44 14.82 39.62s-4.99 29.49-14.82 39.77zm-36.44 4.08c11.04 0 20.26-4.08 27.37-12.1 7.26-8.17 10.88-18.75 10.88-31.75 0-13.01-3.63-23.59-10.88-31.6-7.11-8.16-16.33-12.25-27.37-12.25s-20.11 4.08-27.22 12.25c-7.11 8.01-10.73 18.6-10.73 31.6s3.63 23.59 10.73 31.75c7.11 8.02 16.19 12.1 27.22 12.1z"/>
  </svg>