<?xml version="1.0" encoding="UTF-8"?>
<svg width="105px" height="24px" viewBox="0 0 105 24" version="1.1" xmlns="http://www.w3.org/2000/svg" xmlns:xlink="http://www.w3.org/1999/xlink">
    <title>thursday-logo--black</title>
    <g id="Page-1" stroke="none" stroke-width="1" fill="none" fill-rule="evenodd">
        <g id="thursday-logo--black" transform="translate(-4.000000, -4.000000)" fill="#000000" fill-rule="nonzero">
            <path d="M16.3637056,22.904 L16.3637056,21.2 C15.4997056,21.32 14.8277056,21.368 13.7957056,21.368 L6.0677056,21.368 L6.0677056,13.928 L12.4997056,13.928 C13.6997056,13.928 14.2757056,13.976 15.0917056,14.096 L15.0917056,12.392 C14.1557056,12.512 13.5317056,12.56 12.4997056,12.56 L6.0917056,12.56 L6.0917056,6.08 L13.5797056,6.08 C14.7557056,6.08 15.3797056,6.128 16.1717056,6.248 L16.1717056,4.544 C15.3317056,4.664 14.6117056,4.712 13.5797056,4.712 L6.8597056,4.712 C5.7797056,4.712 5.2037056,4.688 4.3397056,4.64 C4.4837056,5.648 4.5317056,6.32 4.5317056,7.28 L4.5317056,20.048 C4.5317056,21.176 4.4837056,21.92 4.3397056,22.808 C5.2037056,22.76 5.7797056,22.736 6.8597056,22.736 L13.7957056,22.736 C15.0197056,22.736 15.6197056,22.784 16.3637056,22.904 Z M24.5197792,23 C26.7517792,23 28.3117792,21.992 29.3677792,19.928 C29.3197792,20.408 29.2957792,20.72 29.2957792,20.984 L29.2957792,22.736 L30.9517792,22.736 C30.8077792,21.8 30.7597792,21.152 30.7597792,20.144 L30.7597792,12.608 C30.7597792,11.6 30.8077792,10.808 30.9277792,10.016 L29.1277792,10.016 C29.2477792,10.832 29.2957792,11.624 29.2957792,12.608 L29.2957792,17.216 C29.1277792,18.2 28.8637792,18.824 28.2877792,19.664 C27.3517792,21.008 26.1277792,21.728 24.7597792,21.728 C22.7197792,21.728 21.6157792,20.528 21.6157792,18.296 L21.6157792,12.608 C21.6157792,11.6 21.6637792,10.76 21.7837792,10.016 L19.9597792,10.016 C20.0797792,10.76 20.1277792,11.576 20.1277792,12.608 L20.1277792,18.584 C20.1277792,21.392 21.7357792,23 24.5197792,23 Z M36.8518528,27.872 C36.7318528,27.008 36.6838528,26.336 36.6838528,25.28 L36.6838528,22.04 C36.6838528,21.392 36.6598528,20.864 36.5878528,20.192 C37.5478528,21.968 39.3478528,22.976 41.5078528,22.976 C45.0358528,22.976 47.2678528,20.408 47.2678528,16.4 C47.2678528,12.296 45.0838528,9.8 41.4838528,9.8 C39.8758528,9.8 38.6038528,10.304 37.4998528,11.36 C37.0918528,11.768 36.8758528,12.032 36.5878528,12.608 C36.6358528,12.056 36.6598528,11.744 36.6598528,11.336 L36.6598528,10.016 L35.0758528,10.016 C35.1958528,10.928 35.2438528,11.552 35.2438528,12.656 L35.2438528,25.304 C35.2438528,26.24 35.1958528,26.96 35.0758528,27.872 L36.8518528,27.872 Z M41.4358528,21.704 C40.1398528,21.704 38.9638528,21.248 38.0998528,20.408 C37.2118528,19.544 36.6838528,18.08 36.6838528,16.424 C36.6838528,13.184 38.5558528,11.096 41.4358528,11.096 C44.1958528,11.096 45.7558528,13.04 45.7558528,16.424 C45.7558528,19.712 44.1238528,21.704 41.4358528,21.704 Z M52.5919264,22.736 C52.4719264,21.848 52.4239264,21.152 52.4239264,20.144 L52.4239264,15.584 C52.4959264,15.032 52.5679264,14.768 52.6879264,14.456 C53.1199264,13.448 53.8159264,12.488 54.6079264,11.864 C55.2559264,11.36 56.1919264,11.048 57.1519264,11.048 C58.0159264,11.048 58.8079264,11.36 59.3359264,11.912 C59.8879264,12.464 60.1519264,13.304 60.1519264,14.384 L60.1519264,20.144 C60.1519264,21.32 60.1039264,21.968 59.9839264,22.736 L61.8079264,22.736 C61.6879264,21.848 61.6399264,21.2 61.6399264,20.168 L61.6399264,14.144 C61.6399264,11.408 59.9839264,9.776 57.2239264,9.776 C55.7359264,9.776 54.6079264,10.208 53.5999264,11.168 C53.0719264,11.672 52.8079264,12.032 52.3519264,12.896 C52.4079264,12.392 52.4203708,12.1493333 52.4231363,11.8969877 L52.4239264,7.328 C52.4239264,6.176 52.4719264,5.576 52.5919264,4.712 L50.8159264,4.712 C50.9359264,5.552 50.9839264,6.2 50.9839264,7.304 L50.9839264,20.144 C50.9839264,21.296 50.9359264,21.896 50.8159264,22.736 L52.5919264,22.736 Z M71.572,23.024 C75.292,23.024 77.716,20.408 77.716,16.352 C77.716,12.32 75.292,9.728 71.524,9.728 C67.732,9.728 65.308,12.32 65.308,16.4 C65.308,20.456 67.732,23.024 71.572,23.024 Z M71.524,21.728 C68.62,21.728 66.82,19.688 66.82,16.376 C66.82,13.064 68.644,11 71.572,11 C74.404,11 76.204,13.064 76.204,16.376 C76.204,19.688 74.428,21.728 71.524,21.728 Z M83.0640736,22.736 C82.9440736,21.824 82.8960736,21.176 82.8960736,20.144 L82.8960736,15.152 C82.9920736,14.072 83.1840736,13.496 83.7600736,12.728 C84.5280736,11.696 85.5120736,11.192 86.7600736,11.192 C87.3360736,11.192 87.7440736,11.264 88.6320736,11.552 L89.0880736,10.016 C88.1520736,9.848 87.6960736,9.8 87.1200736,9.8 C85.8240736,9.8 84.9360736,10.088 84.0480736,10.76 C83.6400736,11.096 83.2800736,11.528 82.8960736,12.176 L82.8960736,10.016 L81.2400736,10.016 C81.3600736,10.856 81.4080736,11.504 81.4080736,12.608 L81.4080736,20.144 C81.4080736,21.032 81.3600736,21.704 81.2400736,22.736 L83.0640736,22.736 Z M93.7881472,6.656 L93.7881472,4.712 L91.7721472,4.712 L91.7721472,6.656 L93.7881472,6.656 Z M93.6921472,22.736 C93.5721472,21.8 93.5241472,21.176 93.5241472,20.144 L93.5241472,12.632 C93.5241472,11.48 93.5721472,10.832 93.6921472,10.016 L91.8681472,10.016 C91.9881472,10.856 92.0361472,11.528 92.0361472,12.608 L92.0361472,20.144 C92.0361472,21.056 91.9881472,21.728 91.8681472,22.736 L93.6921472,22.736 Z M103.216221,23.048 C104.896221,23.048 106.336221,22.472 107.416221,21.416 C107.920221,20.888 108.208221,20.456 108.712221,19.472 L107.296221,18.872 C107.008221,19.64 106.840221,19.952 106.480221,20.36 C105.712221,21.272 104.560221,21.776 103.240221,21.776 C101.800221,21.776 100.576221,21.176 99.7602208,20.072 C99.1362208,19.208 98.8482208,18.176 98.7762208,16.52 L108.784221,16.52 C108.688221,15.464 108.640221,14.816 108.592221,14.6 C108.088221,11.6 105.976221,9.728 103.024221,9.728 C99.5442208,9.728 97.2882208,12.368 97.2882208,16.4 C97.2882208,20.48 99.5922208,23.048 103.216221,23.048 Z M107.200221,15.248 L98.8482208,15.248 C99.2562208,12.488 100.744221,10.976 103.072221,10.976 C104.344221,10.976 105.544221,11.576 106.288221,12.584 C106.840221,13.328 107.080221,14.072 107.200221,15.248 Z"></path>
        </g>
    </g>
</svg>