<?xml version="1.0" encoding="UTF-8"?>
<svg width="211px" height="212px" viewBox="0 0 211 212" version="1.1" xmlns="http://www.w3.org/2000/svg" xmlns:xlink="http://www.w3.org/1999/xlink">
    <title>made-in-winchester</title>
    <g id="Page-1" stroke="none" stroke-width="1" fill="none" fill-rule="evenodd">
        <g id="made-in-winchester">
            <path d="M105.5,212 C106.682951,212 107.861355,211.981176 109.034908,211.943822 C165.664514,210.141289 211,165.189338 211,110 C211,53.6669555 163.766041,8 105.5,8 C47.2339589,8 0,53.6669555 0,110 C0,166.333044 47.2339589,212 105.5,212 Z" id="Oval" fill="#D50000"></path>
            <polygon id="+" fill="#FFFFFF" fill-rule="nonzero" points="111.420519 139.605469 111.420519 117.105469 135.795519 117.105469 135.795519 102.164062 111.420519 102.164062 111.420519 79.6054688 96.4791129 79.6054688 96.4791129 102.164062 72.1627066 102.164062 72.1627066 117.105469 96.4791129 117.105469 96.4791129 139.605469"></polygon>
            <path d="M75.1314566,51.2929688 C79.3970816,51.2929688 81.9517691,49.2304688 81.9517691,45.984375 L81.9517691,45.9726562 C81.9517691,43.3125 80.3580191,41.8710938 76.8189566,41.1679688 L75.0259879,40.8046875 C73.0806754,40.4179688 72.2134879,39.796875 72.2134879,38.7304688 L72.2134879,38.71875 C72.2134879,37.5117188 73.3033316,36.6796875 75.1197379,36.6679688 C76.8658316,36.6679688 78.0845816,37.4765625 78.2603629,38.8007812 L78.2720816,38.9414062 L81.6119254,38.9414062 L81.6002066,38.71875 C81.4361441,35.7539062 79.0338004,33.796875 75.1197379,33.796875 C71.3697379,33.796875 68.6744254,35.8359375 68.6744254,38.9296875 L68.6744254,38.9414062 C68.6744254,41.484375 70.3619254,43.078125 73.7017691,43.7460938 L75.4830191,44.0976562 C77.5806754,44.53125 78.4127066,45.1054688 78.4127066,46.2539062 L78.4127066,46.265625 C78.4127066,47.5546875 77.1822379,48.4101562 75.2252066,48.4101562 C73.2916129,48.4101562 71.8970816,47.5898438 71.6744254,46.2773438 L71.6509879,46.1484375 L68.3111441,46.1484375 L68.3228629,46.3359375 C68.5220816,49.453125 71.1119254,51.2929688 75.1314566,51.2929688 Z M91.5835615,51 L94.700749,39.6679688 L94.7710615,39.6679688 L97.8765302,51 L101.333561,51 L105.821843,34.0898438 L102.153874,34.0898438 L99.4702802,46.2070312 L99.3999677,46.2070312 L96.2827802,34.0898438 L93.1773115,34.0898438 L90.060124,46.2070312 L89.9898115,46.2070312 L87.3179365,34.0898438 L83.6499677,34.0898438 L88.1265302,51 L91.5835615,51 Z M111.879416,51 L111.879416,34.0898438 L108.340354,34.0898438 L108.340354,51 L111.879416,51 Z M121.487771,51.2929688 C125.753396,51.2929688 128.308084,49.2304688 128.308084,45.984375 L128.308084,45.9726562 C128.308084,43.3125 126.714334,41.8710938 123.175271,41.1679688 L121.382302,40.8046875 C119.43699,40.4179688 118.569802,39.796875 118.569802,38.7304688 L118.569802,38.71875 C118.569802,37.5117188 119.659646,36.6796875 121.476052,36.6679688 C123.222146,36.6679688 124.440896,37.4765625 124.616677,38.8007812 L124.628396,38.9414062 L127.96824,38.9414062 L127.956521,38.71875 C127.792459,35.7539062 125.390115,33.796875 121.476052,33.796875 C117.726052,33.796875 115.03074,35.8359375 115.03074,38.9296875 L115.03074,38.9414062 C115.03074,41.484375 116.71824,43.078125 120.058084,43.7460938 L121.839334,44.0976562 C123.93699,44.53125 124.769021,45.1054688 124.769021,46.2539062 L124.769021,46.265625 C124.769021,47.5546875 123.538552,48.4101562 121.581521,48.4101562 C119.647927,48.4101562 118.253396,47.5898438 118.03074,46.2773438 L118.007302,46.1484375 L114.667459,46.1484375 L114.679177,46.3359375 C114.878396,49.453125 117.46824,51.2929688 121.487771,51.2929688 Z M137.260189,51.2929688 C141.525814,51.2929688 144.080501,49.2304688 144.080501,45.984375 L144.080501,45.9726562 C144.080501,43.3125 142.486751,41.8710938 138.947689,41.1679688 L137.15472,40.8046875 C135.209407,40.4179688 134.34222,39.796875 134.34222,38.7304688 L134.34222,38.71875 C134.34222,37.5117188 135.432064,36.6796875 137.24847,36.6679688 C138.994564,36.6679688 140.213314,37.4765625 140.389095,38.8007812 L140.400814,38.9414062 L143.740657,38.9414062 L143.728939,38.71875 C143.564876,35.7539062 141.162532,33.796875 137.24847,33.796875 C133.49847,33.796875 130.803157,35.8359375 130.803157,38.9296875 L130.803157,38.9414062 C130.803157,41.484375 132.490657,43.078125 135.830501,43.7460938 L137.611751,44.0976562 C139.709407,44.53125 140.541439,45.1054688 140.541439,46.2539062 L140.541439,46.265625 C140.541439,47.5546875 139.31097,48.4101562 137.353939,48.4101562 C135.420345,48.4101562 134.025814,47.5898438 133.803157,46.2773438 L133.77972,46.1484375 L130.439876,46.1484375 L130.451595,46.3359375 C130.650814,49.453125 133.240657,51.2929688 137.260189,51.2929688 Z" id="SWISS" fill="#FFFFFF" fill-rule="nonzero"></path>
            <path d="M73.8926653,182 L73.8926653,170.5625 L73.9864153,170.5625 L78.5567278,182 L80.7832903,182 L85.3418841,170.5625 L85.4473528,170.5625 L85.4473528,182 L88.5996966,182 L88.5996966,165.089844 L84.5098528,165.089844 L79.7051653,177.242188 L79.6348528,177.242188 L74.8301653,165.089844 L70.7403216,165.089844 L70.7403216,182 L73.8926653,182 Z M94.6689889,182 L95.9463327,177.898438 L101.922895,177.898438 L103.200239,182 L106.915083,182 L101.020551,165.089844 L96.8603952,165.089844 L90.9541452,182 L94.6689889,182 Z M101.102583,175.25 L96.7666452,175.25 L98.8994577,168.371094 L98.9697702,168.371094 L101.102583,175.25 Z M115.726562,182 C120.800781,182 123.789062,178.847656 123.789062,173.480469 L123.789062,173.457031 C123.789062,168.101562 120.789062,165.089844 115.726562,165.089844 L109.269531,165.089844 L109.269531,182 L115.726562,182 Z M115.304688,179.070312 L112.808594,179.070312 L112.808594,168.007812 L115.304688,168.007812 C118.410156,168.007812 120.179688,169.941406 120.179688,173.46875 L120.179688,173.492188 C120.179688,177.148438 118.46875,179.070312 115.304688,179.070312 Z M137.897417,182 L137.897417,179.082031 L130.233355,179.082031 L130.233355,174.828125 L137.463824,174.828125 L137.463824,172.0625 L130.233355,172.0625 L130.233355,168.007812 L137.897417,168.007812 L137.897417,165.089844 L126.694292,165.089844 L126.694292,182 L137.897417,182 Z" id="MADE" fill="#FFFFFF" fill-rule="nonzero"></path>
        </g>
    </g>
</svg>