<?xml version="1.0" encoding="UTF-8"?>
<svg width="211px" height="204px" viewBox="0 0 211 204" version="1.1" xmlns="http://www.w3.org/2000/svg" xmlns:xlink="http://www.w3.org/1999/xlink">
    <title>made-in-winchester--white</title>
    <g id="Page-1" stroke="none" stroke-width="1" fill="none" fill-rule="evenodd">
        <g id="made-in-winchester--white">
            <path d="M105.5,1 C134.360838,1 160.490826,12.3076557 179.404685,30.5940399 C198.306125,48.8684187 210,74.113373 210,102 C210,129.273742 198.814498,154.020737 180.640381,172.191064 C162.392641,190.434997 137.100535,202.04998 109.003094,202.944328 C107.840103,202.981346 106.672305,203 105.5,203 C76.6391625,203 50.5091736,191.692344 31.5953154,173.40596 C12.6938746,155.131581 1,129.886627 1,102 C1,74.113373 12.6938746,48.8684187 31.5953154,30.5940399 C50.5091736,12.3076557 76.6391625,1 105.5,1 Z" id="Oval" stroke="#D50000" stroke-width="2"></path>
            <polygon id="+" fill="#D50000" fill-rule="nonzero" points="111.420519 131.605469 111.420519 109.105469 135.795519 109.105469 135.795519 94.1640625 111.420519 94.1640625 111.420519 71.6054688 96.4791129 71.6054688 96.4791129 94.1640625 72.1627066 94.1640625 72.1627066 109.105469 96.4791129 109.105469 96.4791129 131.605469"></polygon>
            <path d="M75.1314566,43.2929688 C79.3970816,43.2929688 81.9517691,41.2304688 81.9517691,37.984375 L81.9517691,37.9726562 C81.9517691,35.3125 80.3580191,33.8710938 76.8189566,33.1679688 L75.0259879,32.8046875 C73.0806754,32.4179688 72.2134879,31.796875 72.2134879,30.7304688 L72.2134879,30.71875 C72.2134879,29.5117188 73.3033316,28.6796875 75.1197379,28.6679688 C76.8658316,28.6679688 78.0845816,29.4765625 78.2603629,30.8007812 L78.2720816,30.9414062 L81.6119254,30.9414062 L81.6002066,30.71875 C81.4361441,27.7539062 79.0338004,25.796875 75.1197379,25.796875 C71.3697379,25.796875 68.6744254,27.8359375 68.6744254,30.9296875 L68.6744254,30.9414062 C68.6744254,33.484375 70.3619254,35.078125 73.7017691,35.7460938 L75.4830191,36.0976562 C77.5806754,36.53125 78.4127066,37.1054688 78.4127066,38.2539062 L78.4127066,38.265625 C78.4127066,39.5546875 77.1822379,40.4101562 75.2252066,40.4101562 C73.2916129,40.4101562 71.8970816,39.5898438 71.6744254,38.2773438 L71.6509879,38.1484375 L68.3111441,38.1484375 L68.3228629,38.3359375 C68.5220816,41.453125 71.1119254,43.2929688 75.1314566,43.2929688 Z M91.5835615,43 L94.700749,31.6679688 L94.7710615,31.6679688 L97.8765302,43 L101.333561,43 L105.821843,26.0898438 L102.153874,26.0898438 L99.4702802,38.2070312 L99.3999677,38.2070312 L96.2827802,26.0898438 L93.1773115,26.0898438 L90.060124,38.2070312 L89.9898115,38.2070312 L87.3179365,26.0898438 L83.6499677,26.0898438 L88.1265302,43 L91.5835615,43 Z M111.879416,43 L111.879416,26.0898438 L108.340354,26.0898438 L108.340354,43 L111.879416,43 Z M121.487771,43.2929688 C125.753396,43.2929688 128.308084,41.2304688 128.308084,37.984375 L128.308084,37.9726562 C128.308084,35.3125 126.714334,33.8710938 123.175271,33.1679688 L121.382302,32.8046875 C119.43699,32.4179688 118.569802,31.796875 118.569802,30.7304688 L118.569802,30.71875 C118.569802,29.5117188 119.659646,28.6796875 121.476052,28.6679688 C123.222146,28.6679688 124.440896,29.4765625 124.616677,30.8007812 L124.628396,30.9414062 L127.96824,30.9414062 L127.956521,30.71875 C127.792459,27.7539062 125.390115,25.796875 121.476052,25.796875 C117.726052,25.796875 115.03074,27.8359375 115.03074,30.9296875 L115.03074,30.9414062 C115.03074,33.484375 116.71824,35.078125 120.058084,35.7460938 L121.839334,36.0976562 C123.93699,36.53125 124.769021,37.1054688 124.769021,38.2539062 L124.769021,38.265625 C124.769021,39.5546875 123.538552,40.4101562 121.581521,40.4101562 C119.647927,40.4101562 118.253396,39.5898438 118.03074,38.2773438 L118.007302,38.1484375 L114.667459,38.1484375 L114.679177,38.3359375 C114.878396,41.453125 117.46824,43.2929688 121.487771,43.2929688 Z M137.260189,43.2929688 C141.525814,43.2929688 144.080501,41.2304688 144.080501,37.984375 L144.080501,37.9726562 C144.080501,35.3125 142.486751,33.8710938 138.947689,33.1679688 L137.15472,32.8046875 C135.209407,32.4179688 134.34222,31.796875 134.34222,30.7304688 L134.34222,30.71875 C134.34222,29.5117188 135.432064,28.6796875 137.24847,28.6679688 C138.994564,28.6679688 140.213314,29.4765625 140.389095,30.8007812 L140.400814,30.9414062 L143.740657,30.9414062 L143.728939,30.71875 C143.564876,27.7539062 141.162532,25.796875 137.24847,25.796875 C133.49847,25.796875 130.803157,27.8359375 130.803157,30.9296875 L130.803157,30.9414062 C130.803157,33.484375 132.490657,35.078125 135.830501,35.7460938 L137.611751,36.0976562 C139.709407,36.53125 140.541439,37.1054688 140.541439,38.2539062 L140.541439,38.265625 C140.541439,39.5546875 139.31097,40.4101562 137.353939,40.4101562 C135.420345,40.4101562 134.025814,39.5898438 133.803157,38.2773438 L133.77972,38.1484375 L130.439876,38.1484375 L130.451595,38.3359375 C130.650814,41.453125 133.240657,43.2929688 137.260189,43.2929688 Z" id="SWISS" fill="#D50000" fill-rule="nonzero"></path>
            <path d="M73.8926653,174 L73.8926653,162.5625 L73.9864153,162.5625 L78.5567278,174 L80.7832903,174 L85.341884,162.5625 L85.4473528,162.5625 L85.4473528,174 L88.5996965,174 L88.5996965,157.089844 L84.5098528,157.089844 L79.7051653,169.242188 L79.6348528,169.242188 L74.8301653,157.089844 L70.7403215,157.089844 L70.7403215,174 L73.8926653,174 Z M94.6689889,174 L95.9463326,169.898438 L101.922895,169.898438 L103.200239,174 L106.915083,174 L101.020551,157.089844 L96.8603951,157.089844 L90.9541451,174 L94.6689889,174 Z M101.102583,167.25 L96.7666451,167.25 L98.8994576,160.371094 L98.9697701,160.371094 L101.102583,167.25 Z M115.726562,174 C120.800781,174 123.789062,170.847656 123.789062,165.480469 L123.789062,165.457031 C123.789062,160.101562 120.789062,157.089844 115.726562,157.089844 L109.269531,157.089844 L109.269531,174 L115.726562,174 Z M115.304687,171.070312 L112.808594,171.070312 L112.808594,160.007812 L115.304687,160.007812 C118.410156,160.007812 120.179687,161.941406 120.179687,165.46875 L120.179687,165.492188 C120.179687,169.148438 118.46875,171.070312 115.304687,171.070312 Z M137.897417,174 L137.897417,171.082031 L130.233355,171.082031 L130.233355,166.828125 L137.463824,166.828125 L137.463824,164.0625 L130.233355,164.0625 L130.233355,160.007812 L137.897417,160.007812 L137.897417,157.089844 L126.694292,157.089844 L126.694292,174 L137.897417,174 Z" id="MADE" fill="#D50000" fill-rule="nonzero"></path>
        </g>
    </g>
</svg>